<?xml version="1.0" encoding="UTF-8"?>
<svg version="1.1" xmlns="http://www.w3.org/2000/svg" width="1536" height="864">
<path d="M0 0 C506.88 0 1013.76 0 1536 0 C1536 285.12 1536 570.24 1536 864 C1029.12 864 522.24 864 0 864 C0 578.88 0 293.76 0 0 Z " fill="#FFB300" transform="translate(0,0)"/>
<path d="M0 0 C132.66 0 265.32 0 402 0 C402 1.98 402 3.96 402 6 C407.94 6 413.88 6 420 6 C420 9.96 420 13.92 420 18 C421.98 18 423.96 18 426 18 C426 21.96 426 25.92 426 30 C427.98 30 429.96 30 432 30 C432 37.92 432 45.84 432 54 C433.98 54 435.96 54 438 54 C438 57.96 438 61.92 438 66 C439.98 66 441.96 66 444 66 C444 69.96 444 73.92 444 78 C445.98 78 447.96 78 450 78 C450 81.96 450 85.92 450 90 C451.98 90 453.96 90 456 90 C456 93.96 456 97.92 456 102 C457.98 102 459.96 102 462 102 C462 105.96 462 109.92 462 114 C463.98 114 465.96 114 468 114 C468 117.96 468 121.92 468 126 C469.98 126 471.96 126 474 126 C474 129.96 474 133.92 474 138 C475.98 138 477.96 138 480 138 C480 141.96 480 145.92 480 150 C481.98 150 483.96 150 486 150 C486 153.96 486 157.92 486 162 C487.98 162 489.96 162 492 162 C492 165.96 492 169.92 492 174 C493.98 174 495.96 174 498 174 C498 177.96 498 181.92 498 186 C499.98 186 501.96 186 504 186 C504 189.96 504 193.92 504 198 C505.98 198 507.96 198 510 198 C510 199.98 510 201.96 510 204 C511.98 204 513.96 204 516 204 C516 207.96 516 211.92 516 216 C517.98 216 519.96 216 522 216 C522 217.98 522 219.96 522 222 C523.98 222 525.96 222 528 222 C528 227.94 528 233.88 528 240 C529.98 240 531.96 240 534 240 C534 245.94 534 251.88 534 258 C535.98 258 537.96 258 540 258 C540 259.98 540 261.96 540 264 C541.98 264 543.96 264 546 264 C546 267.96 546 271.92 546 276 C547.98 276 549.96 276 552 276 C552 279.96 552 283.92 552 288 C553.98 288 555.96 288 558 288 C558 289.98 558 291.96 558 294 C559.98 294 561.96 294 564 294 C564 295.98 564 297.96 564 300 C565.98 300 567.96 300 570 300 C570 301.98 570 303.96 570 306 C571.98 306 573.96 306 576 306 C576 309.96 576 313.92 576 318 C577.98 318 579.96 318 582 318 C582 319.98 582 321.96 582 324 C583.98 324 585.96 324 588 324 C588 327.96 588 331.92 588 336 C589.98 336 591.96 336 594 336 C594 337.98 594 339.96 594 342 C595.98 342 597.96 342 600 342 C600 343.98 600 345.96 600 348 C601.98 348 603.96 348 606 348 C606 351.96 606 355.92 606 360 C607.98 360 609.96 360 612 360 C612 361.98 612 363.96 612 366 C613.98 366 615.96 366 618 366 C618 367.98 618 369.96 618 372 C619.98 372 621.96 372 624 372 C624 375.96 624 379.92 624 384 C625.98 384 627.96 384 630 384 C630 387.96 630 391.92 630 396 C631.98 396 633.96 396 636 396 C636 397.98 636 399.96 636 402 C637.98 402 639.96 402 642 402 C642 403.98 642 405.96 642 408 C645.96 408 649.92 408 654 408 C654 411.96 654 415.92 654 420 C655.98 420 657.96 420 660 420 C660 421.98 660 423.96 660 426 C663.96 426 667.92 426 672 426 C672 429.96 672 433.92 672 438 C673.98 438 675.96 438 678 438 C678 439.98 678 441.96 678 444 C679.98 444 681.96 444 684 444 C684 445.98 684 447.96 684 450 C685.98 450 687.96 450 690 450 C690 451.98 690 453.96 690 456 C691.98 456 693.96 456 696 456 C696 457.98 696 459.96 696 462 C697.98 462 699.96 462 702 462 C702 463.98 702 465.96 702 468 C703.98 468 705.96 468 708 468 C708 469.98 708 471.96 708 474 C709.98 474 711.96 474 714 474 C714 475.98 714 477.96 714 480 C715.98 480 717.96 480 720 480 C720 481.98 720 483.96 720 486 C721.98 486 723.96 486 726 486 C726 487.98 726 489.96 726 492 C729.96 492 733.92 492 738 492 C738 493.98 738 495.96 738 498 C739.98 498 741.96 498 744 498 C744 499.98 744 501.96 744 504 C745.98 504 747.96 504 750 504 C750 505.98 750 507.96 750 510 C751.98 510 753.96 510 756 510 C756 511.98 756 513.96 756 516 C759.96 516 763.92 516 768 516 C768 517.98 768 519.96 768 522 C771.96 522 775.92 522 780 522 C780 523.98 780 525.96 780 528 C783.96 528 787.92 528 792 528 C792 529.98 792 531.96 792 534 C795.96 534 799.92 534 804 534 C804 535.98 804 537.96 804 540 C807.96 540 811.92 540 816 540 C816 541.98 816 543.96 816 546 C821.94 546 827.88 546 834 546 C834 547.98 834 549.96 834 552 C839.94 552 845.88 552 852 552 C852 553.98 852 555.96 852 558 C855.96 558 859.92 558 864 558 C864 559.98 864 561.96 864 564 C869.94 564 875.88 564 882 564 C882 565.98 882 567.96 882 570 C889.92 570 897.84 570 906 570 C906 571.98 906 573.96 906 576 C915.9 576 925.8 576 936 576 C936 577.98 936 579.96 936 582 C939.96 582 943.92 582 948 582 C948 583.98 948 585.96 948 588 C951.96 588 955.92 588 960 588 C960 589.98 960 591.96 960 594 C961.98 594 963.96 594 966 594 C966 595.98 966 597.96 966 600 C967.98 600 969.96 600 972 600 C972 601.98 972 603.96 972 606 C973.98 606 975.96 606 978 606 C978 607.98 978 609.96 978 612 C981.96 612 985.92 612 990 612 C990 615.96 990 619.92 990 624 C991.98 624 993.96 624 996 624 C996 625.98 996 627.96 996 630 C997.98 630 999.96 630 1002 630 C1002 631.98 1002 633.96 1002 636 C1003.98 636 1005.96 636 1008 636 C1008 639.96 1008 643.92 1008 648 C1009.98 648 1011.96 648 1014 648 C1014 649.98 1014 651.96 1014 654 C1015.98 654 1017.96 654 1020 654 C1020 655.98 1020 657.96 1020 660 C1023.96 660 1027.92 660 1032 660 C1032 663.96 1032 667.92 1032 672 C1033.98 672 1035.96 672 1038 672 C1038 675.96 1038 679.92 1038 684 C1039.98 684 1041.96 684 1044 684 C1044 685.98 1044 687.96 1044 690 C1045.98 690 1047.96 690 1050 690 C1050 693.96 1050 697.92 1050 702 C1051.98 702 1053.96 702 1056 702 C1056 703.98 1056 705.96 1056 708 C1059.96 708 1063.92 708 1068 708 C1068 709.98 1068 711.96 1068 714 C1069.98 714 1071.96 714 1074 714 C1074 715.98 1074 717.96 1074 720 C1075.98 720 1077.96 720 1080 720 C1080 723.96 1080 727.92 1080 732 C1083.96 732 1087.92 732 1092 732 C1092 733.98 1092 735.96 1092 738 C1093.98 738 1095.96 738 1098 738 C1098 739.98 1098 741.96 1098 744 C1099.98 744 1101.96 744 1104 744 C1104 745.98 1104 747.96 1104 750 C1105.98 750 1107.96 750 1110 750 C1110 751.98 1110 753.96 1110 756 C1111.98 756 1113.96 756 1116 756 C1116 757.98 1116 759.96 1116 762 C1117.98 762 1119.96 762 1122 762 C1122 763.98 1122 765.96 1122 768 C1123.98 768 1125.96 768 1128 768 C1128 769.98 1128 771.96 1128 774 C1129.98 774 1131.96 774 1134 774 C1134 775.98 1134 777.96 1134 780 C1139.94 780 1145.88 780 1152 780 C1152 783.96 1152 787.92 1152 792 C1153.98 792 1155.96 792 1158 792 C1158 793.98 1158 795.96 1158 798 C1159.98 798 1161.96 798 1164 798 C1164 799.98 1164 801.96 1164 804 C1175.88 804 1187.76 804 1200 804 C1200 805.98 1200 807.96 1200 810 C1201.98 810 1203.96 810 1206 810 C1206 811.98 1206 813.96 1206 816 C1213.92 816 1221.84 816 1230 816 C1230 817.98 1230 819.96 1230 822 C1233.96 822 1237.92 822 1242 822 C1242 823.98 1242 825.96 1242 828 C1243.98 828 1245.96 828 1248 828 C1248 829.98 1248 831.96 1248 834 C1257.9 834 1267.8 834 1278 834 C1278 835.98 1278 837.96 1278 840 C1279.98 840 1281.96 840 1284 840 C1284 843.96 1284 847.92 1284 852 C1287.96 852 1291.92 852 1296 852 C1296 853.98 1296 855.96 1296 858 C1297.98 858 1299.96 858 1302 858 C1302 859.98 1302 861.96 1302 864 C872.34 864 442.68 864 0 864 C0 578.88 0 293.76 0 0 Z " fill="#FFA000" transform="translate(0,0)"/>
<path d="M0 0 C267.3 0 534.6 0 810 0 C810 186.12 810 372.24 810 564 C808.02 564 806.04 564 804 564 C804 565.98 804 567.96 804 570 C790.14 570 776.28 570 762 570 C762 571.98 762 573.96 762 576 C756.06 576 750.12 576 744 576 C744 577.98 744 579.96 744 582 C734.1 582 724.2 582 714 582 C714 583.98 714 585.96 714 588 C674.4 588 634.8 588 594 588 C594 586.02 594 584.04 594 582 C584.1 582 574.2 582 564 582 C564 580.02 564 578.04 564 576 C560.04 576 556.08 576 552 576 C552 574.02 552 572.04 552 570 C548.04 570 544.08 570 540 570 C540 568.02 540 566.04 540 564 C536.04 564 532.08 564 528 564 C528 562.02 528 560.04 528 558 C526.02 558 524.04 558 522 558 C522 554.04 522 550.08 522 546 C520.02 546 518.04 546 516 546 C516 544.02 516 542.04 516 540 C512.04 540 508.08 540 504 540 C504 538.02 504 536.04 504 534 C500.04 534 496.08 534 492 534 C492 532.02 492 530.04 492 528 C490.02 528 488.04 528 486 528 C486 526.02 486 524.04 486 522 C484.02 522 482.04 522 480 522 C480 516.06 480 510.12 480 504 C478.02 504 476.04 504 474 504 C474 502.02 474 500.04 474 498 C472.02 498 470.04 498 468 498 C468 496.02 468 494.04 468 492 C466.02 492 464.04 492 462 492 C462 490.02 462 488.04 462 486 C460.02 486 458.04 486 456 486 C456 484.02 456 482.04 456 480 C454.02 480 452.04 480 450 480 C450 476.04 450 472.08 450 468 C448.02 468 446.04 468 444 468 C444 464.04 444 460.08 444 456 C442.02 456 440.04 456 438 456 C438 452.04 438 448.08 438 444 C436.02 444 434.04 444 432 444 C432 442.02 432 440.04 432 438 C430.02 438 428.04 438 426 438 C426 434.04 426 430.08 426 426 C424.02 426 422.04 426 420 426 C420 424.02 420 422.04 420 420 C416.04 420 412.08 420 408 420 C408 418.02 408 416.04 408 414 C406.02 414 404.04 414 402 414 C402 412.02 402 410.04 402 408 C398.04 408 394.08 408 390 408 C390 406.02 390 404.04 390 402 C388.02 402 386.04 402 384 402 C384 400.02 384 398.04 384 396 C382.02 396 380.04 396 378 396 C378 394.02 378 392.04 378 390 C374.04 390 370.08 390 366 390 C366 388.02 366 386.04 366 384 C362.04 384 358.08 384 354 384 C354 382.02 354 380.04 354 378 C352.02 378 350.04 378 348 378 C348 376.02 348 374.04 348 372 C344.04 372 340.08 372 336 372 C336 370.02 336 368.04 336 366 C332.04 366 328.08 366 324 366 C324 364.02 324 362.04 324 360 C320.04 360 316.08 360 312 360 C312 358.02 312 356.04 312 354 C310.02 354 308.04 354 306 354 C306 352.02 306 350.04 306 348 C302.04 348 298.08 348 294 348 C294 346.02 294 344.04 294 342 C290.04 342 286.08 342 282 342 C282 340.02 282 338.04 282 336 C278.04 336 274.08 336 270 336 C270 334.02 270 332.04 270 330 C268.02 330 266.04 330 264 330 C264 328.02 264 326.04 264 324 C260.04 324 256.08 324 252 324 C252 322.02 252 320.04 252 318 C248.04 318 244.08 318 240 318 C240 316.02 240 314.04 240 312 C236.04 312 232.08 312 228 312 C228 310.02 228 308.04 228 306 C224.04 306 220.08 306 216 306 C216 304.02 216 302.04 216 300 C214.02 300 212.04 300 210 300 C210 298.02 210 296.04 210 294 C208.02 294 206.04 294 204 294 C204 292.02 204 290.04 204 288 C200.04 288 196.08 288 192 288 C192 286.02 192 284.04 192 282 C190.02 282 188.04 282 186 282 C186 280.02 186 278.04 186 276 C184.02 276 182.04 276 180 276 C180 272.04 180 268.08 180 264 C178.02 264 176.04 264 174 264 C174 262.02 174 260.04 174 258 C172.02 258 170.04 258 168 258 C168 256.02 168 254.04 168 252 C166.02 252 164.04 252 162 252 C162 250.02 162 248.04 162 246 C160.02 246 158.04 246 156 246 C156 244.02 156 242.04 156 240 C154.02 240 152.04 240 150 240 C150 238.02 150 236.04 150 234 C148.02 234 146.04 234 144 234 C144 230.04 144 226.08 144 222 C142.02 222 140.04 222 138 222 C138 220.02 138 218.04 138 216 C136.02 216 134.04 216 132 216 C132 212.04 132 208.08 132 204 C130.02 204 128.04 204 126 204 C126 202.02 126 200.04 126 198 C124.02 198 122.04 198 120 198 C120 194.04 120 190.08 120 186 C118.02 186 116.04 186 114 186 C114 184.02 114 182.04 114 180 C112.02 180 110.04 180 108 180 C108 176.04 108 172.08 108 168 C106.02 168 104.04 168 102 168 C102 164.04 102 160.08 102 156 C100.02 156 98.04 156 96 156 C96 154.02 96 152.04 96 150 C94.02 150 92.04 150 90 150 C90 146.04 90 142.08 90 138 C88.02 138 86.04 138 84 138 C84 136.02 84 134.04 84 132 C82.02 132 80.04 132 78 132 C78 130.02 78 128.04 78 126 C76.02 126 74.04 126 72 126 C72 124.02 72 122.04 72 120 C70.02 120 68.04 120 66 120 C66 118.02 66 116.04 66 114 C64.02 114 62.04 114 60 114 C60 110.04 60 106.08 60 102 C58.02 102 56.04 102 54 102 C54 98.04 54 94.08 54 90 C52.02 90 50.04 90 48 90 C48 88.02 48 86.04 48 84 C46.02 84 44.04 84 42 84 C42 82.02 42 80.04 42 78 C40.02 78 38.04 78 36 78 C36 76.02 36 74.04 36 72 C34.02 72 32.04 72 30 72 C30 68.04 30 64.08 30 60 C28.02 60 26.04 60 24 60 C24 56.04 24 52.08 24 48 C22.02 48 20.04 48 18 48 C18 44.04 18 40.08 18 36 C16.02 36 14.04 36 12 36 C12 34.02 12 32.04 12 30 C10.02 30 8.04 30 6 30 C6 26.04 6 22.08 6 18 C4.02 18 2.04 18 0 18 C0 12.06 0 6.12 0 0 Z " fill="#FFCA28" transform="translate(726,0)"/>
<path d="M0 0 C17.82 0 35.64 0 54 0 C54 3.96 54 7.92 54 12 C55.98 12 57.96 12 60 12 C60 15.96 60 19.92 60 24 C61.98 24 63.96 24 66 24 C66 27.96 66 31.92 66 36 C67.98 36 69.96 36 72 36 C72 37.98 72 39.96 72 42 C73.98 42 75.96 42 78 42 C78 45.96 78 49.92 78 54 C79.98 54 81.96 54 84 54 C84 55.98 84 57.96 84 60 C85.98 60 87.96 60 90 60 C90 63.96 90 67.92 90 72 C91.98 72 93.96 72 96 72 C96 73.98 96 75.96 96 78 C97.98 78 99.96 78 102 78 C102 79.98 102 81.96 102 84 C103.98 84 105.96 84 108 84 C108 87.96 108 91.92 108 96 C109.98 96 111.96 96 114 96 C114 97.98 114 99.96 114 102 C115.98 102 117.96 102 120 102 C120 103.98 120 105.96 120 108 C121.98 108 123.96 108 126 108 C126 109.98 126 111.96 126 114 C127.98 114 129.96 114 132 114 C132 117.96 132 121.92 132 126 C133.98 126 135.96 126 138 126 C138 129.96 138 133.92 138 138 C139.98 138 141.96 138 144 138 C144 141.96 144 145.92 144 150 C145.98 150 147.96 150 150 150 C150 151.98 150 153.96 150 156 C151.98 156 153.96 156 156 156 C156 159.96 156 163.92 156 168 C157.98 168 159.96 168 162 168 C162 171.96 162 175.92 162 180 C163.98 180 165.96 180 168 180 C168 181.98 168 183.96 168 186 C169.98 186 171.96 186 174 186 C174 189.96 174 193.92 174 198 C175.98 198 177.96 198 180 198 C180 199.98 180 201.96 180 204 C181.98 204 183.96 204 186 204 C186 207.96 186 211.92 186 216 C187.98 216 189.96 216 192 216 C192 217.98 192 219.96 192 222 C193.98 222 195.96 222 198 222 C198 225.96 198 229.92 198 234 C199.98 234 201.96 234 204 234 C204 235.98 204 237.96 204 240 C205.98 240 207.96 240 210 240 C210 243.96 210 247.92 210 252 C211.98 252 213.96 252 216 252 C216 253.98 216 255.96 216 258 C217.98 258 219.96 258 222 258 C222 261.96 222 265.92 222 270 C223.98 270 225.96 270 228 270 C228 271.98 228 273.96 228 276 C229.98 276 231.96 276 234 276 C234 279.96 234 283.92 234 288 C235.98 288 237.96 288 240 288 C240 291.96 240 295.92 240 300 C241.98 300 243.96 300 246 300 C246 303.96 246 307.92 246 312 C247.98 312 249.96 312 252 312 C252 313.98 252 315.96 252 318 C253.98 318 255.96 318 258 318 C258 321.96 258 325.92 258 330 C259.98 330 261.96 330 264 330 C264 331.98 264 333.96 264 336 C265.98 336 267.96 336 270 336 C270 339.96 270 343.92 270 348 C271.98 348 273.96 348 276 348 C276 349.98 276 351.96 276 354 C277.98 354 279.96 354 282 354 C282 357.96 282 361.92 282 366 C283.98 366 285.96 366 288 366 C288 367.98 288 369.96 288 372 C289.98 372 291.96 372 294 372 C294 373.98 294 375.96 294 378 C295.98 378 297.96 378 300 378 C300 381.96 300 385.92 300 390 C301.98 390 303.96 390 306 390 C306 391.98 306 393.96 306 396 C307.98 396 309.96 396 312 396 C312 399.96 312 403.92 312 408 C313.98 408 315.96 408 318 408 C318 411.96 318 415.92 318 420 C319.98 420 321.96 420 324 420 C324 423.96 324 427.92 324 432 C325.98 432 327.96 432 330 432 C330 435.96 330 439.92 330 444 C331.98 444 333.96 444 336 444 C336 447.96 336 451.92 336 456 C337.98 456 339.96 456 342 456 C342 457.98 342 459.96 342 462 C343.98 462 345.96 462 348 462 C348 463.98 348 465.96 348 468 C349.98 468 351.96 468 354 468 C354 469.98 354 471.96 354 474 C355.98 474 357.96 474 360 474 C360 475.98 360 477.96 360 480 C361.98 480 363.96 480 366 480 C366 483.96 366 487.92 366 492 C367.98 492 369.96 492 372 492 C372 495.96 372 499.92 372 504 C373.98 504 375.96 504 378 504 C378 505.98 378 507.96 378 510 C379.98 510 381.96 510 384 510 C384 513.96 384 517.92 384 522 C385.98 522 387.96 522 390 522 C390 523.98 390 525.96 390 528 C391.98 528 393.96 528 396 528 C396 529.98 396 531.96 396 534 C397.98 534 399.96 534 402 534 C402 535.98 402 537.96 402 540 C403.98 540 405.96 540 408 540 C408 541.98 408 543.96 408 546 C409.98 546 411.96 546 414 546 C414 549.96 414 553.92 414 558 C415.98 558 417.96 558 420 558 C420 559.98 420 561.96 420 564 C421.98 564 423.96 564 426 564 C426 565.98 426 567.96 426 570 C427.98 570 429.96 570 432 570 C432 573.96 432 577.92 432 582 C433.98 582 435.96 582 438 582 C438 585.96 438 589.92 438 594 C439.98 594 441.96 594 444 594 C444 597.96 444 601.92 444 606 C445.98 606 447.96 606 450 606 C450 607.98 450 609.96 450 612 C451.98 612 453.96 612 456 612 C456 613.98 456 615.96 456 618 C457.98 618 459.96 618 462 618 C462 619.98 462 621.96 462 624 C463.98 624 465.96 624 468 624 C468 625.98 468 627.96 468 630 C469.98 630 471.96 630 474 630 C474 631.98 474 633.96 474 636 C475.98 636 477.96 636 480 636 C480 637.98 480 639.96 480 642 C481.98 642 483.96 642 486 642 C486 643.98 486 645.96 486 648 C487.98 648 489.96 648 492 648 C492 649.98 492 651.96 492 654 C493.98 654 495.96 654 498 654 C498 655.98 498 657.96 498 660 C499.98 660 501.96 660 504 660 C504 661.98 504 663.96 504 666 C507.96 666 511.92 666 516 666 C516 667.98 516 669.96 516 672 C519.96 672 523.92 672 528 672 C528 673.98 528 675.96 528 678 C531.96 678 535.92 678 540 678 C540 679.98 540 681.96 540 684 C545.94 684 551.88 684 558 684 C558 685.98 558 687.96 558 690 C563.94 690 569.88 690 576 690 C576 691.98 576 693.96 576 696 C579.96 696 583.92 696 588 696 C588 697.98 588 699.96 588 702 C593.94 702 599.88 702 606 702 C606 703.98 606 705.96 606 708 C611.94 708 617.88 708 624 708 C624 709.98 624 711.96 624 714 C629.94 714 635.88 714 642 714 C642 715.98 642 717.96 642 720 C643.98 720 645.96 720 648 720 C648 721.98 648 723.96 648 726 C649.98 726 651.96 726 654 726 C654 727.98 654 729.96 654 732 C657.96 732 661.92 732 666 732 C666 733.98 666 735.96 666 738 C677.88 738 689.76 738 702 738 C702 739.98 702 741.96 702 744 C703.98 744 705.96 744 708 744 C708 745.98 708 747.96 708 750 C711.96 750 715.92 750 720 750 C720 751.98 720 753.96 720 756 C723.96 756 727.92 756 732 756 C732 757.98 732 759.96 732 762 C735.96 762 739.92 762 744 762 C744 763.98 744 765.96 744 768 C749.94 768 755.88 768 762 768 C762 769.98 762 771.96 762 774 C765.96 774 769.92 774 774 774 C774 775.98 774 777.96 774 780 C775.98 780 777.96 780 780 780 C780 781.98 780 783.96 780 786 C783.96 786 787.92 786 792 786 C792 787.98 792 789.96 792 792 C795.96 792 799.92 792 804 792 C804 793.98 804 795.96 804 798 C805.98 798 807.96 798 810 798 C810 801.96 810 805.92 810 810 C811.98 810 813.96 810 816 810 C816 811.98 816 813.96 816 816 C817.98 816 819.96 816 822 816 C822 819.96 822 823.92 822 828 C825.96 828 829.92 828 834 828 C834 829.98 834 831.96 834 834 C835.98 834 837.96 834 840 834 C840 835.98 840 837.96 840 840 C841.98 840 843.96 840 846 840 C846 841.98 846 843.96 846 846 C847.98 846 849.96 846 852 846 C852 847.98 852 849.96 852 852 C855.96 852 859.92 852 864 852 C864 853.98 864 855.96 864 858 C865.98 858 867.96 858 870 858 C870 859.98 870 861.96 870 864 C582.9 864 295.8 864 0 864 C0 578.88 0 293.76 0 0 Z " fill="#FF8F00" transform="translate(0,0)"/>
<path d="M0 0 C162.36 0 324.72 0 492 0 C492 104.94 492 209.88 492 318 C480.12 318 468.24 318 456 318 C456 316.02 456 314.04 456 312 C452.04 312 448.08 312 444 312 C444 310.02 444 308.04 444 306 C442.02 306 440.04 306 438 306 C438 304.02 438 302.04 438 300 C436.02 300 434.04 300 432 300 C432 298.02 432 296.04 432 294 C428.04 294 424.08 294 420 294 C420 292.02 420 290.04 420 288 C418.02 288 416.04 288 414 288 C414 286.02 414 284.04 414 282 C412.02 282 410.04 282 408 282 C408 280.02 408 278.04 408 276 C406.02 276 404.04 276 402 276 C402 272.04 402 268.08 402 264 C398.04 264 394.08 264 390 264 C390 262.02 390 260.04 390 258 C388.02 258 386.04 258 384 258 C384 254.04 384 250.08 384 246 C382.02 246 380.04 246 378 246 C378 244.02 378 242.04 378 240 C374.04 240 370.08 240 366 240 C366 238.02 366 236.04 366 234 C364.02 234 362.04 234 360 234 C360 232.02 360 230.04 360 228 C358.02 228 356.04 228 354 228 C354 226.02 354 224.04 354 222 C352.02 222 350.04 222 348 222 C348 220.02 348 218.04 348 216 C346.02 216 344.04 216 342 216 C342 214.02 342 212.04 342 210 C338.04 210 334.08 210 330 210 C330 208.02 330 206.04 330 204 C324.06 204 318.12 204 312 204 C312 202.02 312 200.04 312 198 C304.08 198 296.16 198 288 198 C288 196.02 288 194.04 288 192 C282.06 192 276.12 192 270 192 C270 190.02 270 188.04 270 186 C254.16 186 238.32 186 222 186 C222 184.02 222 182.04 222 180 C214.08 180 206.16 180 198 180 C198 178.02 198 176.04 198 174 C192.06 174 186.12 174 180 174 C180 172.02 180 170.04 180 168 C172.08 168 164.16 168 156 168 C156 166.02 156 164.04 156 162 C150.06 162 144.12 162 138 162 C138 160.02 138 158.04 138 156 C134.04 156 130.08 156 126 156 C126 154.02 126 152.04 126 150 C124.02 150 122.04 150 120 150 C120 148.02 120 146.04 120 144 C118.02 144 116.04 144 114 144 C114 142.02 114 140.04 114 138 C112.02 138 110.04 138 108 138 C108 136.02 108 134.04 108 132 C104.04 132 100.08 132 96 132 C96 130.02 96 128.04 96 126 C92.04 126 88.08 126 84 126 C84 124.02 84 122.04 84 120 C82.02 120 80.04 120 78 120 C78 116.04 78 112.08 78 108 C74.04 108 70.08 108 66 108 C66 106.02 66 104.04 66 102 C64.02 102 62.04 102 60 102 C60 100.02 60 98.04 60 96 C58.02 96 56.04 96 54 96 C54 94.02 54 92.04 54 90 C52.02 90 50.04 90 48 90 C48 86.04 48 82.08 48 78 C46.02 78 44.04 78 42 78 C42 74.04 42 70.08 42 66 C40.02 66 38.04 66 36 66 C36 64.02 36 62.04 36 60 C34.02 60 32.04 60 30 60 C30 58.02 30 56.04 30 54 C28.02 54 26.04 54 24 54 C24 52.02 24 50.04 24 48 C22.02 48 20.04 48 18 48 C18 46.02 18 44.04 18 42 C16.02 42 14.04 42 12 42 C12 36.06 12 30.12 12 24 C10.02 24 8.04 24 6 24 C6 20.04 6 16.08 6 12 C4.02 12 2.04 12 0 12 C0 8.04 0 4.08 0 0 Z " fill="#FFD54F" transform="translate(1044,0)"/>
</svg>
